<svg xmlns="http://www.w3.org/2000/svg" width="960" height="500" viewBox="0 0 960 500"><defs><linearGradient id="g" x1="0" y1="0" x2="0" y2="1"><stop stop-color="#E6EAEC"/><stop offset=".73" stop-color="#F2F4F4"/><stop offset="1" stop-color="#F2F4F4"/></linearGradient><linearGradient id="veil"><stop stop-color="#F2F4F4" stop-opacity=".28"/><stop offset=".48" stop-color="#F2F4F4" stop-opacity=".24"/><stop offset="1" stop-color="#F2F4F4" stop-opacity="0"/></linearGradient><linearGradient id="fade" x1="0" y1="0" x2="0" y2="1"><stop offset=".60" stop-color="#F2F4F4" stop-opacity="0"/><stop offset=".98" stop-color="#F2F4F4" stop-opacity="1"/><stop offset="1" stop-color="#F2F4F4" stop-opacity="1"/></linearGradient></defs><rect width="960" height="500" fill="url(#g)"/><path d="M778 44a24 24 0 1 1-31-23 23 23 0 0 0 31 23Z" fill="#426080" opacity=".16"/><path d="M0 365Q220 300 360 255Q450 145 520 194T718 169T960 143V500H0Z" fill="#E0E5E8" opacity=".7"/><path d="M0 500Q350 400 540 304Q630 181 724 238T960 235V500H0Z" fill="#F2F4F4" opacity=".64"/><rect width="960" height="500" fill="url(#veil)"/><rect width="960" height="500" fill="url(#fade)"/></svg>